PathFileType	4	(X/Y/Z)	..\data\2014022\dynamic\2014022_C4_04.trc
DataRate	CameraRate	NumFrames	NumMarkers	Units	OrigDataRate	OrigDataStartFrame	OrigNumFrames
100.000000	100.000000	4	52	mm	100.000000	129	173
Frame#	Time	L_IAS			L_IPS			R_IPS			R_IAS			L_FTC			L_FLE			L_FME			L_FAX			L_TTC			L_FAL			L_TAM			L_FCC			L_FM1			L_FM2			L_FM5			R_FTC			R_FLE			R_FME			R_FAX			R_TTC			R_FAL			R_TAM			R_FCC			R_FM1			R_FM2			R_FM5			CV7			TV10			SXS			SJN			L_SIA			L_SRS			L_SAA			L_SAE			L_HLE			L_HME			L_UOA			L_RSP			L_UHE			L_HM2			L_HM5			R_SIA			R_SRS			R_SAA			R_SAE			R_HLE			R_HME			R_UOA			R_RSP			R_UHE			R_HM2			R_HM5			
		X1	Y1	Z1	X2	Y2	Z2	X3	Y3	Z3	X4	Y4	Z4	X5	Y5	Z5	X6	Y6	Z6	X7	Y7	Z7	X8	Y8	Z8	X9	Y9	Z9	X10	Y10	Z10	X11	Y11	Z11	X12	Y12	Z12	X13	Y13	Z13	X14	Y14	Z14	X15	Y15	Z15	X16	Y16	Z16	X17	Y17	Z17	X18	Y18	Z18	X19	Y19	Z19	X20	Y20	Z20	X21	Y21	Z21	X22	Y22	Z22	X23	Y23	Z23	X24	Y24	Z24	X25	Y25	Z25	X26	Y26	Z26	X27	Y27	Z27	X28	Y28	Z28	X29	Y29	Z29	X30	Y30	Z30	X31	Y31	Z31	X32	Y32	Z32	X33	Y33	Z33	X34	Y34	Z34	X35	Y35	Z35	X36	Y36	Z36	X37	Y37	Z37	X38	Y38	Z38	X39	Y39	Z39	X40	Y40	Z40	X41	Y41	Z41	X42	Y42	Z42	X43	Y43	Z43	X44	Y44	Z44	X45	Y45	Z45	X46	Y46	Z46	X47	Y47	Z47	X48	Y48	Z48	X49	Y49	Z49	X50	Y50	Z50	X51	Y51	Z51	X52	Y52	Z52	

130	1.29	521.5546875000001	946.636413574219	184.0426635742188	319.9874572753906	950.3203735351565	239.8598632812501	316.0860595703125	937.165954589844	349.6797485351564	494.1303100585938	911.850769042969	422.622528076172	457.7156982421876	896.043395996094	105.6674804687501	514.2218627929689	458.3081665039064	144.8198394775391	458.9670104980469	443.2259521484376	271.592254638672	490.5001220703126	402.5407104492189	138.3203430175782	548.1560668945314	398.3601684570314	207.1467590332032	527.1889038085939	60.76020431518556	212.6730041503907	539.7179565429689	79.4425506591797	296.1760253906251	492.5532836914063	13.61878108978272	260.7732238769532	672.5142211914064	9.737733840942385	308.0079345703126	682.7688598632814	29.50593376159669	248.5570220947267	642.6557006835939	13.8898458480835	194.8065643310548	409.9924926757813	832.716979980469	475.4146118164064	406.9559631347657	425.2609863281251	440.1228027343752	448.3666687011719	411.284393310547	307.8322143554689	364.1613464355469	401.8619995117189	443.473846435547	409.1135864257813	345.7632751464844	396.7686462402345	80.47389984130857	220.1971893310547	389.4502258300782	99.40747070312499	208.4526977539063	306.6920471191407	31.09360313415524	238.8087768554688	337.7695007324219	71.96910095214841	72.43726348876955	293.9314575195313	88.5801086425781	66.08911895751955	350.2184143066407	59.68946456909176	91.62861633300783	398.710418701172	365.6515197753906	1416.82861328125	266.9246215820314	288.8873596191406	1198.60498046875	293.0140075683595	523.7584838867189	1133.158447265625	290.6312866210939	478.7829895019532	1348.072143554688	276.6307067871095	278.4899291992188	1222.77685546875	208.961654663086	314.8310546875001	1366.367431640625	215.8863525390626	348.1567382812501	1369.167724609375	144.9724578857423	394.1475219726564	1349.38818359375	94.54724121093756	297.9087829589844	1050.395385742188	49.99110412597661	322.7412109375001	1032.188232421875	135.7722320556641	287.8882446289063	1029.013427734375	88.86746215820317	325.6266784667969	802.924743652344	18.81351089477543	255.4507751464844	834.530456542969	9.971467018127475	304.5250549316407	717.3145751953126	-8.310897827148402	215.9429931640626	764.2080688476564	19.29755783081058	277.4809875488281	1237.253173828125	379.1922302246095	321.260498046875	1378.305786132813	350.4115600585939	356.7323608398438	1384.292724609375	429.0879516601564	405.5041503906251	1386.286743164063	460.1409912109377	386.7250976562501	1066.541748046875	519.0062866210939	394.8111572265626	1053.458740234375	435.3721313476564	378.2750549316406	1040.5390625	486.5683898925783	535.8582153320312	868.7373657226565	554.6074218750002	463.5101318359376	848.529724121094	558.6160888671876	573.898681640625	790.3687744140627	580.130798339844	480.0447387695313	767.4543457031251	549.5745239257815	
131	1.3	534.0723876953126	948.063903808594	184.0030364990235	332.4976196289062	951.7004394531252	238.9506835937501	328.0375671386719	937.916198730469	348.3712158203126	505.5086364746094	913.2410888671877	422.8670349121095	469.9342346191407	897.4300537109377	105.188575744629	518.2696533203126	458.5604248046876	143.9478454589845	462.6726074218751	444.5601501464845	270.8182067871095	493.8709106445314	403.1847229003907	137.5889739990235	551.8791503906251	398.3206176757814	206.4814453125001	526.9205322265626	61.0233726501465	212.6181793212892	539.5798950195314	79.74288940429689	296.0213317871095	492.5077819824219	13.54814910888672	260.5974121093751	672.1679077148439	10.06704902648926	308.1048278808595	682.6832275390626	29.91820526123048	248.6500244140626	642.6184082031251	14.28807735443116	194.8442535400392	421.9877929687501	833.4916992187502	474.4452209472658	433.1433105468751	426.133514404297	439.9964904785158	474.8581848144532	412.7569580078126	307.2630310058595	391.2009582519532	403.0325927734376	443.193328857422	436.4626159667969	346.8980712890626	396.6141052246095	106.9608154296875	222.7925720214844	389.5210266113282	126.5844039916992	210.0104980468751	307.1680908203126	56.88311004638669	239.5855255126954	337.6833801269532	102.7346878051758	73.36690521240236	297.9096679687501	118.7611312866211	68.45089721679689	354.1976318359376	89.13449096679685	95.20619964599611	401.8303527832032	378.8837585449219	1417.921875	266.6062011718751	301.468994140625	1199.993774414063	292.727996826172	536.1812133789064	1134.135864257813	291.5976867675782	491.6118774414063	1349.213256835938	277.0647583007814	291.5505371093751	1223.986572265625	208.5102844238282	327.8912048339844	1367.679565429688	215.8240203857423	361.5261230468751	1370.28125	144.9387359619141	407.9260559082032	1350.295532226563	94.76387786865241	315.9822998046876	1049.846557617188	48.80845260620122	339.2165222167969	1032.100341796875	135.2622375488282	305.3825378417969	1028.358764648438	87.63256072998053	348.9597167968751	803.0167236328127	19.22599983215337	278.2365722656251	833.0462036132815	8.415158271789586	330.3374938964844	717.0406494140626	-8.386577606201133	240.2494354248047	761.8670043945314	16.92484664916995	289.7753295898438	1238.791015625	378.9852905273439	333.9898986816406	1379.800415039063	350.4269104003907	369.2113342285156	1385.817260742188	429.2127990722658	417.8522033691407	1387.75146484375	460.437469482422	398.0379333496094	1067.847534179688	518.4929199218751	406.1821594238282	1055.18701171875	434.8168334960939	389.3653564453126	1042.2294921875	485.8607788085939	544.2738037109375	867.8538208007815	553.4086914062502	471.4676208496094	848.9312133789065	557.6783447265627	580.994873046875	788.5640869140627	578.2746582031252	486.3707885742188	767.6164550781251	548.3146972656252	
132	1.31	546.4191894531251	949.0969848632815	184.0288696289063	344.9171752929688	952.9563598632815	237.7709960937501	339.7455139160156	938.8187255859377	346.7935791015626	516.6572875976564	914.8547973632815	423.2784729003908	481.898406982422	898.2421875000002	104.7020339965821	521.9456176757814	458.6382446289064	143.394744873047	466.4866943359376	445.7801208496095	270.5507812500001	496.9097900390626	403.697479248047	137.2841186523438	555.5478515625001	398.1638793945314	206.1282043457032	526.6440429687501	61.22095108032228	212.6981506347657	539.5130004882814	79.93286895751955	296.0247497558595	492.4013977050782	13.4443473815918	260.5155639648439	671.8798828125001	10.31639099121094	308.1625366210939	682.6046142578126	30.22340774536134	248.7014312744142	642.5385742187501	14.55582046508789	194.9338226318361	433.1437377929688	834.7215576171877	473.3179931640627	459.0364685058594	427.605926513672	439.5644836425783	500.6938171386719	415.2228088378907	306.4204711914064	417.9045410156251	404.6470031738282	442.4942626953127	463.7218627929688	348.6011962890626	396.1425170898439	134.2957305908203	223.9111938476563	389.6148376464845	154.7571105957031	210.1911315917969	307.6935424804688	83.20684051513669	238.0898132324219	337.7319335937501	136.1937713623047	73.0569534301758	301.9817810058594	151.8067321777343	70.18152618408205	358.2309570312501	121.2241668701172	97.51869964599612	405.0852050781251	391.9479064941407	1419.05615234375	266.5060424804689	313.9244384765625	1201.352172851563	292.4138488769532	548.4984130859376	1135.102294921875	292.577606201172	504.3336486816407	1350.32763671875	277.5580444335939	304.5539550781251	1225.149047851563	207.956771850586	340.8221435546876	1369.0068359375	215.8767547607423	374.7355957031251	1371.427978515625	145.0149230957032	421.5250549316407	1351.2568359375	95.08011627197273	334.1662902832032	1049.314453125	47.74624633789067	355.6937866210938	1032.01123046875	134.8243560791016	323.0010375976563	1027.647338867188	86.45700836181646	372.7772521972657	803.2484130859377	19.85459518432622	301.5887145996094	831.5464477539065	7.070134162902871	357.0100402832032	717.0556030273439	-8.361628532409625	265.3607482910157	759.4294433593751	14.62679100036625	301.993408203125	1240.245727539063	378.7294921875001	346.6306762695312	1381.2412109375	350.5285034179689	381.5958557128906	1387.250610351563	429.4167480468752	430.0794982910157	1389.111328125	460.8228759765627	409.1646423339844	1069.097778320313	518.1791381835939	417.3219604492188	1056.81103515625	434.4764404296877	400.2673339843751	1043.840698242188	485.3745422363283	552.6163940429688	867.056335449219	552.3540649414065	479.4310607910157	849.3472900390627	556.9426269531252	588.1207275390625	786.8708496093752	576.3463134765627	492.7412719726563	767.8376464843751	547.1243286132815	
133	1.32	558.5999145507814	949.750427246094	184.1035461425782	357.2478637695312	954.0979003906252	236.377655029297	351.2586059570312	939.862976074219	345.0445556640626	527.6738891601564	916.6378173828127	423.785369873047	493.660369873047	898.5595703125002	104.2098922729493	525.4409790039064	458.5836181640626	143.1552276611329	470.5084533691407	446.8802795410157	270.7388610839845	499.7930908203126	404.109344482422	137.3656311035157	559.2504272460939	397.9007873535157	206.0652313232423	526.4262084960939	61.35349273681642	212.9109954833986	539.5494384765626	80.02176666259767	296.1880798339845	492.2561035156251	13.34012985229493	260.5210571289064	671.6761474609376	10.42509460449219	308.1866760253907	682.5700073242189	30.38132095336915	248.7194824218751	642.4341430664064	14.68793201446534	195.0479736328126	443.6115417480469	836.299987792969	472.0827026367189	484.5893554687501	429.6002807617189	438.8372192382814	525.8862304687501	418.5448608398439	305.3485717773439	444.1920471191407	406.6292419433595	441.4107360839845	490.8081665039063	350.8118286132813	395.3958740234377	162.4030609130859	223.4634704589844	389.778533935547	183.8572845458984	208.9210510253907	308.2907714843751	110.0872039794922	234.3433685302735	337.9470214843751	171.9958343505859	71.61477661132814	306.0310363769532	187.333984375	71.2328567504883	362.1868591308594	155.6175231933593	98.50788116455081	408.3685607910157	404.8322753906251	1420.23095703125	266.6258239746095	326.272216796875	1202.667236328125	292.0588378906251	560.7203979492189	1136.062622070313	293.535125732422	516.9564208984376	1351.40576171875	278.0860290527345	317.4974975585938	1226.270263671875	207.2963867187501	353.6362915039063	1370.33837890625	216.0188903808595	387.799041748047	1372.605346679688	145.1764678955079	434.9520874023439	1352.274291992188	95.46864318847663	352.4464111328126	1048.821166992188	46.81382369995122	372.1721801757813	1031.949951171875	134.4607238769532	340.7409057617188	1026.903198242188	85.35576629638678	397.0307922363282	803.6597900390627	20.71218299865728	325.4746398925782	830.0875244140627	5.977701663970988	384.4599914550782	717.4165039062501	-8.193636894226028	291.2286987304688	756.9801025390626	12.47293186187748	314.1610107421875	1241.59716796875	378.4006652832032	359.1932373046875	1382.608154296875	350.6945800781251	393.8973388671876	1388.571411132813	429.6759338378908	442.2053222656251	1390.349609375	461.2715148925783	420.1056213378907	1070.278564453125	518.0267333984376	428.2508544921876	1058.314697265625	434.3109436035158	410.9874267578126	1045.35302734375	485.0774536132814	560.901611328125	866.3477172851565	551.462829589844	487.4162597656251	849.7720336914065	556.420837402344	595.2976684570312	785.2976074218752	574.397399902344	499.1832275390626	768.1077880859377	546.0388183593752	
